<?xml version="1.0" encoding="UTF-8" standalone="no"?>
<!-- Created with Inkscape (http://www.inkscape.org/) -->

<svg
   width="388.05557mm"
   height="236.3611mm"
   viewBox="0 0 388.05557 236.3611"
   version="1.1"
   id="svg5"
   xml:space="preserve"
   inkscape:version="1.2.2 (732a01da63, 2022-12-09)"
   sodipodi:docname="Background_railway_V2.svg"
   inkscape:export-filename="backgr_railway.png"
   inkscape:export-xdpi="71.999992"
   inkscape:export-ydpi="71.999992"
   xmlns:inkscape="http://www.inkscape.org/namespaces/inkscape"
   xmlns:sodipodi="http://sodipodi.sourceforge.net/DTD/sodipodi-0.dtd"
   xmlns:xlink="http://www.w3.org/1999/xlink"
   xmlns="http://www.w3.org/2000/svg"
   xmlns:svg="http://www.w3.org/2000/svg"><sodipodi:namedview
     id="namedview7"
     pagecolor="#ffffff"
     bordercolor="#000000"
     borderopacity="0.25"
     inkscape:showpageshadow="2"
     inkscape:pageopacity="0.0"
     inkscape:pagecheckerboard="0"
     inkscape:deskcolor="#d1d1d1"
     inkscape:document-units="mm"
     showgrid="true"
     inkscape:zoom="0.49897241"
     inkscape:cx="654.34479"
     inkscape:cy="254.52309"
     inkscape:window-width="1920"
     inkscape:window-height="1017"
     inkscape:window-x="1912"
     inkscape:window-y="-8"
     inkscape:window-maximized="1"
     inkscape:current-layer="layer1"><inkscape:grid
       type="xygrid"
       id="grid302"
       units="mm"
       spacingx="0.99999998"
       spacingy="0.99999998" /></sodipodi:namedview><defs
     id="defs2"><linearGradient
       inkscape:collect="always"
       id="linearGradient32590"><stop
         style="stop-color:#bfbfbf;stop-opacity:1;"
         offset="0"
         id="stop32586" /><stop
         style="stop-color:#e6e6e6;stop-opacity:1;"
         offset="0.79946089"
         id="stop32596" /><stop
         style="stop-color:#ffffff;stop-opacity:1;"
         offset="1"
         id="stop32588" /></linearGradient><linearGradient
       inkscape:collect="always"
       id="linearGradient32582"><stop
         style="stop-color:#909090;stop-opacity:1;"
         offset="0"
         id="stop32578" /><stop
         style="stop-color:#b7b7b7;stop-opacity:1;"
         offset="0.64949226"
         id="stop32594" /><stop
         style="stop-color:#ffffff;stop-opacity:1;"
         offset="1"
         id="stop32580" /></linearGradient><linearGradient
       inkscape:collect="always"
       id="linearGradient32574"><stop
         style="stop-color:#5d994e;stop-opacity:1;"
         offset="0"
         id="stop32570" /><stop
         style="stop-color:#8fec73;stop-opacity:1;"
         offset="1"
         id="stop32572" /></linearGradient><linearGradient
       inkscape:collect="always"
       xlink:href="#linearGradient32574"
       id="linearGradient32576"
       x1="124.85744"
       y1="276.03207"
       x2="126.29822"
       y2="174.04622"
       gradientUnits="userSpaceOnUse" /><linearGradient
       inkscape:collect="always"
       xlink:href="#linearGradient32582"
       id="linearGradient32584"
       x1="121.48083"
       y1="214.90826"
       x2="113.29628"
       y2="75.802574"
       gradientUnits="userSpaceOnUse" /><linearGradient
       inkscape:collect="always"
       xlink:href="#linearGradient32590"
       id="linearGradient32592"
       x1="73.110458"
       y1="188.4095"
       x2="67.309883"
       y2="71.050804"
       gradientUnits="userSpaceOnUse" /></defs><g
     inkscape:label="Ebene 1"
     inkscape:groupmode="layer"
     id="layer1"
     transform="translate(82.358917,-20.915756)"><rect
       style="fill:#91e2ff;fill-opacity:1;stroke:none;stroke-width:1;stroke-dasharray:none;stroke-opacity:1"
       id="rect15265"
       width="425"
       height="254.99998"
       x="-97.358917"
       y="15.915756" /><ellipse
       style="fill:#bdeeff;fill-opacity:1;stroke:none;stroke-width:1;stroke-dasharray:none;stroke-opacity:1"
       id="path17087"
       cx="97.641075"
       cy="215.91576"
       rx="463.33099"
       ry="174.04257" /><ellipse
       style="fill:#d5f4ff;fill-opacity:1;stroke:none;stroke-width:1;stroke-dasharray:none;stroke-opacity:1"
       id="ellipse17245"
       cx="97.641075"
       cy="215.91576"
       rx="410"
       ry="140" /><ellipse
       style="fill:#e7f9ff;fill-opacity:1;stroke:none;stroke-width:1;stroke-dasharray:none;stroke-opacity:1"
       id="ellipse17299"
       cx="97.641075"
       cy="215.91576"
       rx="350"
       ry="105" /><path
       style="fill:#551900;fill-opacity:1;stroke:none;stroke-width:1;stroke-dasharray:none;stroke-opacity:1"
       d="m 152.64108,140.91575 h 129.99998 l 45.00002,-8 v -1 H 202.64107 Z"
       id="path4239" /><path
       style="fill:url(#linearGradient32592);fill-opacity:1;stroke:none;stroke-width:1;stroke-dasharray:none;stroke-opacity:1"
       d="m -147.35892,20.915756 c 45,0 85.000004,114.999994 110.000002,114.999994 25,0 44.9999971,-64.999997 79.999998,-64.999997 34.999998,0 65.00001,79.999997 95,79.999997 30.00001,0 34.5049,-74.999996 60,-74.999995 24.99999,10e-7 25,19.999998 39.99999,19.999998 15,0 14.99999,-39.999998 35.00001,-39.999998 19.99998,0 46.58704,115.137195 74.99999,119.999995 28.41291,4.8628 35,85 35,85 l -519.99998,5 z"
       id="path13946"
       sodipodi:nodetypes="csssssssccc" /><path
       style="fill:#787878;fill-opacity:1;stroke:none;stroke-width:1;stroke-dasharray:none;stroke-opacity:1"
       d="m 192.64109,145.91575 h 69.99999 l 0,13 c 0,0 -20.00002,-10 -35.00001,-10 -15,0 -34.99998,10 -34.99998,10 l 0,-13"
       id="path22321"
       sodipodi:nodetypes="ccczcc" /><path
       style="fill:#787878;fill-opacity:1;stroke:none;stroke-width:1;stroke-dasharray:none;stroke-opacity:1"
       d="m 17.64108,145.91575 h 79.999998 l -8.999998,15 v -6 c 0,-3 -2.999996,-6 -6,-6 -2.999996,0 -6,3 -6,6 l 0.999998,21 h -5 l 1.000002,-21 c 2e-6,-3 -2.999996,-6 -5.999999,-6 -2.999997,0 -6.000001,3 -6.000001,6 l 1,31 h -5.000001 l 1.000001,-31 c 10e-7,-3 -2.999996,-6 -5.999997,-6 -2.999999,0 -6.000001,3 -6.000003,6 l 0.999998,26 H 42.64108 l 1,-26 c 0,-3 -2.999995,-6 -5.999996,-6 -2.999999,0 -6.000001,3 -6.000003,6 l 0.999998,16 h -5 l 1.000002,-16 c 2e-6,-3 -3,-6 -6,-6 h -10 l -10e-7,-3 z"
       id="path15021"
       sodipodi:nodetypes="cccccccccccccccccccccccccccc" /><path
       style="fill:url(#linearGradient32584);fill-opacity:1;stroke:none;stroke-width:1;stroke-dasharray:none;stroke-opacity:1"
       d="m -132.35891,170.91575 c 14.99999,0 59.644654,-75 94.999992,-74.999995 34.9999995,4e-6 64.999998,84.999995 94.999998,84.999995 29.999998,0 65.00001,-99.999995 90,-99.999995 25,0 50,89.999995 79.99999,89.999995 30.4138,0 60.00001,-94.999996 94.99999,-94.999996 35.00001,0 30.00002,169.999996 30.00002,169.999996 h -484.99999 z"
       id="path13944"
       sodipodi:nodetypes="csssssccc" /><path
       style="fill:url(#linearGradient32576);fill-opacity:1;stroke:none;stroke-width:1;stroke-dasharray:none;stroke-opacity:1"
       d="m -112.35891,195.91575 c 29.999993,0 79.99999,-15 114.9999913,-15 34.9999987,0 84.9999957,25 109.9999987,25 25,0 35,-35 65,-35 30,0 59.99999,30 95,30 34.99999,0 49.99998,-50 64.99998,-50 15.00002,0 20.00001,125 20.00001,125 h -474.99999 z"
       id="path14011" /><g
       id="g13771"
       transform="translate(112,-2.9999985)"><path
         style="fill:#2fca34;fill-opacity:1;stroke:none;stroke-width:1;stroke-dasharray:none;stroke-opacity:1"
         d="m -56.358918,250.91575 c 1,-6 3.303426,-11.24734 6,-17 -3.540544,5.11982 -6.556805,10.16775 -8,15 -0.231827,-4.70893 0.659139,-7.34722 1,-11 -1.245866,3.48824 -2.539309,6.94195 -3,11 -0.582955,-6.1188 -1.860258,-8.70996 -3,-12 0.483559,3.74148 1.405669,6.72829 1,12 -0.679739,-2.89172 -1.913538,-4.81742 -3,-7 0.477356,2.54451 1.000001,5 1,7 -0.999999,-3 -1.999999,-4 -3.999999,-3 2,-1 2.668838,1.20109 2.999999,5 z"
         id="path13767"
         sodipodi:nodetypes="cccccccccccc" /><path
         style="fill:#196b1c;fill-opacity:1;stroke:none;stroke-width:1;stroke-dasharray:none;stroke-opacity:1"
         d="m -64.358917,250.91575 c -1,-4 -2,-6 -4,-5 2,-1 2.668838,1.20109 2.999999,5 h 7.000001 c 1.999999,-6 4.999999,-12 7.999999,-17 -3.540544,5.11982 -6.556804,10.16775 -7.999999,15 v 2 h -1 c -0.231827,-4.70893 1,-9 1.999999,-13 -1.245866,3.48824 -2.539308,6.94195 -2.999999,11 v 2 h -1 c -0.582955,-6.1188 -0.860259,-10.70996 -2.000001,-14 0.483559,3.74148 1.405669,6.72829 1,12 l 1e-6,2 h -1 c 0,-3 -0.913539,-6.81742 -2.000001,-9 0.477356,2.54451 1.000001,5 1,7"
         id="path13769"
         sodipodi:nodetypes="cccccccccccccccccc" /></g><g
       id="g13783"
       transform="translate(218,-4.9999985)"><path
         style="fill:#2fca34;fill-opacity:1;stroke:none;stroke-width:1;stroke-dasharray:none;stroke-opacity:1"
         d="m -56.358918,250.91575 c 1,-6 3.303426,-11.24734 6,-17 -3.540544,5.11982 -6.556805,10.16775 -8,15 -0.231827,-4.70893 0.659139,-7.34722 1,-11 -1.245866,3.48824 -2.539309,6.94195 -3,11 -0.582955,-6.1188 -1.860258,-8.70996 -3,-12 0.483559,3.74148 1.405669,6.72829 1,12 -0.679739,-2.89172 -1.913538,-4.81742 -3,-7 0.477356,2.54451 1.000001,5 1,7 -0.999999,-3 -1.999999,-4 -3.999999,-3 2,-1 2.668838,1.20109 2.999999,5 z"
         id="path13779"
         sodipodi:nodetypes="cccccccccccc" /><path
         style="fill:#196b1c;fill-opacity:1;stroke:none;stroke-width:1;stroke-dasharray:none;stroke-opacity:1"
         d="m -64.358917,250.91575 c -1,-4 -2,-6 -4,-5 2,-1 2.668838,1.20109 2.999999,5 h 7.000001 c 1.999999,-6 4.999999,-12 7.999999,-17 -3.540544,5.11982 -6.556804,10.16775 -7.999999,15 v 2 h -1 c -0.231827,-4.70893 1,-9 1.999999,-13 -1.245866,3.48824 -2.539308,6.94195 -2.999999,11 v 2 h -1 c -0.582955,-6.1188 -0.860259,-10.70996 -2.000001,-14 0.483559,3.74148 1.405669,6.72829 1,12 l 1e-6,2 h -1 c 0,-3 -0.913539,-6.81742 -2.000001,-9 0.477356,2.54451 1.000001,5 1,7"
         id="path13781"
         sodipodi:nodetypes="cccccccccccccccccc" /></g><g
       id="g13795"
       transform="translate(321.99999,-2.9999985)"><path
         style="fill:#2fca34;fill-opacity:1;stroke:none;stroke-width:1;stroke-dasharray:none;stroke-opacity:1"
         d="m -56.358918,250.91575 c 1,-6 3.303426,-11.24734 6,-17 -3.540544,5.11982 -6.556805,10.16775 -8,15 -0.231827,-4.70893 0.659139,-7.34722 1,-11 -1.245866,3.48824 -2.539309,6.94195 -3,11 -0.582955,-6.1188 -1.860258,-8.70996 -3,-12 0.483559,3.74148 1.405669,6.72829 1,12 -0.679739,-2.89172 -1.913538,-4.81742 -3,-7 0.477356,2.54451 1.000001,5 1,7 -0.999999,-3 -1.999999,-4 -3.999999,-3 2,-1 2.668838,1.20109 2.999999,5 z"
         id="path13791"
         sodipodi:nodetypes="cccccccccccc" /><path
         style="fill:#196b1c;fill-opacity:1;stroke:none;stroke-width:1;stroke-dasharray:none;stroke-opacity:1"
         d="m -64.358917,250.91575 c -1,-4 -2,-6 -4,-5 2,-1 2.668838,1.20109 2.999999,5 h 7.000001 c 1.999999,-6 4.999999,-12 7.999999,-17 -3.540544,5.11982 -6.556804,10.16775 -7.999999,15 v 2 h -1 c -0.231827,-4.70893 1,-9 1.999999,-13 -1.245866,3.48824 -2.539308,6.94195 -2.999999,11 v 2 h -1 c -0.582955,-6.1188 -0.860259,-10.70996 -2.000001,-14 0.483559,3.74148 1.405669,6.72829 1,12 l 1e-6,2 h -1 c 0,-3 -0.913539,-6.81742 -2.000001,-9 0.477356,2.54451 1.000001,5 1,7"
         id="path13793"
         sodipodi:nodetypes="cccccccccccccccccc" /></g><g
       id="g13813"
       transform="matrix(-1,0,0,1,211.28216,-0.9999986)"><path
         style="fill:#196b1c;fill-opacity:1;stroke:none;stroke-width:1;stroke-dasharray:none;stroke-opacity:1"
         d="m -17.358919,253.91575 c 1,-6 3.303426,-11.24734 6,-17 -3.540544,5.11982 -6.556805,10.16775 -8,15 -0.231827,-4.70893 0.659139,-7.34722 1,-11 -1.245866,3.48824 -2.539309,6.94195 -3,11 -0.582955,-6.1188 -1.860258,-8.70996 -3,-12 0.483559,3.74148 1.405669,6.72829 1,12 -0.679739,-2.89172 -1.913538,-4.81742 -3,-7 0.477356,2.54451 1.000001,5 1,7 -0.999999,-3 -1.999999,-4 -3.999999,-3 2,-1 2.668838,1.20109 2.999999,5 z"
         id="path13809"
         sodipodi:nodetypes="cccccccccccc" /><path
         style="fill:#2fca34;fill-opacity:1;stroke:none;stroke-width:1;stroke-dasharray:none;stroke-opacity:1"
         d="m -25.358918,253.91575 c -1,-4 -2,-6 -4,-5 2,-1 2.668838,1.20109 2.999999,5 h 7.000001 c 1.999999,-6 4.999999,-12 7.999999,-17 -3.540544,5.11982 -6.556804,10.16775 -7.999999,15 v 2 h -1 c -0.231827,-4.70893 1,-9 1.999999,-13 -1.245866,3.48824 -2.539308,6.94195 -2.999999,11 v 2 h -1 c -0.582955,-6.1188 -0.860259,-10.70996 -2.000001,-14 0.483559,3.74148 1.405669,6.72829 1,12 l 1e-6,2 h -1 c 0,-3 -0.913539,-6.81742 -2.000001,-9 0.477356,2.54451 1.000001,5 1,7"
         id="path13811"
         sodipodi:nodetypes="cccccccccccccccccc" /></g><g
       id="g13807"
       transform="matrix(-1,0,0,1,115.28216,-1.9999986)"><path
         style="fill:#196b1c;fill-opacity:1;stroke:none;stroke-width:1;stroke-dasharray:none;stroke-opacity:1"
         d="m -17.358919,253.91575 c 1,-6 3.303426,-11.24734 6,-17 -3.540544,5.11982 -6.556805,10.16775 -8,15 -0.231827,-4.70893 0.659139,-7.34722 1,-11 -1.245866,3.48824 -2.539309,6.94195 -3,11 -0.582955,-6.1188 -1.860258,-8.70996 -3,-12 0.483559,3.74148 1.405669,6.72829 1,12 -0.679739,-2.89172 -1.913538,-4.81742 -3,-7 0.477356,2.54451 1.000001,5 1,7 -0.999999,-3 -1.999999,-4 -3.999999,-3 2,-1 2.668838,1.20109 2.999999,5 z"
         id="path13803"
         sodipodi:nodetypes="cccccccccccc" /><path
         style="fill:#2fca34;fill-opacity:1;stroke:none;stroke-width:1;stroke-dasharray:none;stroke-opacity:1"
         d="m -25.358918,253.91575 c -1,-4 -2,-6 -4,-5 2,-1 2.668838,1.20109 2.999999,5 h 7.000001 c 1.999999,-6 4.999999,-12 7.999999,-17 -3.540544,5.11982 -6.556804,10.16775 -7.999999,15 v 2 h -1 c -0.231827,-4.70893 1,-9 1.999999,-13 -1.245866,3.48824 -2.539308,6.94195 -2.999999,11 v 2 h -1 c -0.582955,-6.1188 -0.860259,-10.70996 -2.000001,-14 0.483559,3.74148 1.405669,6.72829 1,12 l 1e-6,2 h -1 c 0,-3 -0.913539,-6.81742 -2.000001,-9 0.477356,2.54451 1.000001,5 1,7"
         id="path13805"
         sodipodi:nodetypes="cccccccccccccccccc" /></g><g
       id="g13819"
       transform="matrix(-1,0,0,1,275.28216,8.0000012)"><path
         style="fill:#196b1c;fill-opacity:1;stroke:none;stroke-width:1;stroke-dasharray:none;stroke-opacity:1"
         d="m -17.358919,253.91575 c 1,-6 3.303426,-11.24734 6,-17 -3.540544,5.11982 -6.556805,10.16775 -8,15 -0.231827,-4.70893 0.659139,-7.34722 1,-11 -1.245866,3.48824 -2.539309,6.94195 -3,11 -0.582955,-6.1188 -1.860258,-8.70996 -3,-12 0.483559,3.74148 1.405669,6.72829 1,12 -0.679739,-2.89172 -1.913538,-4.81742 -3,-7 0.477356,2.54451 1.000001,5 1,7 -0.999999,-3 -1.999999,-4 -3.999999,-3 2,-1 2.668838,1.20109 2.999999,5 z"
         id="path13815"
         sodipodi:nodetypes="cccccccccccc" /><path
         style="fill:#2fca34;fill-opacity:1;stroke:none;stroke-width:1;stroke-dasharray:none;stroke-opacity:1"
         d="m -25.358918,253.91575 c -1,-4 -2,-6 -4,-5 2,-1 2.668838,1.20109 2.999999,5 h 7.000001 c 1.999999,-6 4.999999,-12 7.999999,-17 -3.540544,5.11982 -6.556804,10.16775 -7.999999,15 v 2 h -1 c -0.231827,-4.70893 1,-9 1.999999,-13 -1.245866,3.48824 -2.539308,6.94195 -2.999999,11 v 2 h -1 c -0.582955,-6.1188 -0.860259,-10.70996 -2.000001,-14 0.483559,3.74148 1.405669,6.72829 1,12 l 1e-6,2 h -1 c 0,-3 -0.913539,-6.81742 -2.000001,-9 0.477356,2.54451 1.000001,5 1,7"
         id="path13817"
         sodipodi:nodetypes="cccccccccccccccccc" /></g><g
       id="g13789"
       transform="translate(258,3.0000013)"><path
         style="fill:#2fca34;fill-opacity:1;stroke:none;stroke-width:1;stroke-dasharray:none;stroke-opacity:1"
         d="m -56.358918,250.91575 c 1,-6 3.303426,-11.24734 6,-17 -3.540544,5.11982 -6.556805,10.16775 -8,15 -0.231827,-4.70893 0.659139,-7.34722 1,-11 -1.245866,3.48824 -2.539309,6.94195 -3,11 -0.582955,-6.1188 -1.860258,-8.70996 -3,-12 0.483559,3.74148 1.405669,6.72829 1,12 -0.679739,-2.89172 -1.913538,-4.81742 -3,-7 0.477356,2.54451 1.000001,5 1,7 -0.999999,-3 -1.999999,-4 -3.999999,-3 2,-1 2.668838,1.20109 2.999999,5 z"
         id="path13785"
         sodipodi:nodetypes="cccccccccccc" /><path
         style="fill:#196b1c;fill-opacity:1;stroke:none;stroke-width:1;stroke-dasharray:none;stroke-opacity:1"
         d="m -64.358917,250.91575 c -1,-4 -2,-6 -4,-5 2,-1 2.668838,1.20109 2.999999,5 h 7.000001 c 1.999999,-6 4.999999,-12 7.999999,-17 -3.540544,5.11982 -6.556804,10.16775 -7.999999,15 v 2 h -1 c -0.231827,-4.70893 1,-9 1.999999,-13 -1.245866,3.48824 -2.539308,6.94195 -2.999999,11 v 2 h -1 c -0.582955,-6.1188 -0.860259,-10.70996 -2.000001,-14 0.483559,3.74148 1.405669,6.72829 1,12 l 1e-6,2 h -1 c 0,-3 -0.913539,-6.81742 -2.000001,-9 0.477356,2.54451 1.000001,5 1,7"
         id="path13787"
         sodipodi:nodetypes="cccccccccccccccccc" /></g><g
       id="g13777"
       transform="translate(141,4.0000013)"><path
         style="fill:#2fca34;fill-opacity:1;stroke:none;stroke-width:1;stroke-dasharray:none;stroke-opacity:1"
         d="m -56.358918,250.91575 c 1,-6 3.303426,-11.24734 6,-17 -3.540544,5.11982 -6.556805,10.16775 -8,15 -0.231827,-4.70893 0.659139,-7.34722 1,-11 -1.245866,3.48824 -2.539309,6.94195 -3,11 -0.582955,-6.1188 -1.860258,-8.70996 -3,-12 0.483559,3.74148 1.405669,6.72829 1,12 -0.679739,-2.89172 -1.913538,-4.81742 -3,-7 0.477356,2.54451 1.000001,5 1,7 -0.999999,-3 -1.999999,-4 -3.999999,-3 2,-1 2.668838,1.20109 2.999999,5 z"
         id="path13773"
         sodipodi:nodetypes="cccccccccccc" /><path
         style="fill:#196b1c;fill-opacity:1;stroke:none;stroke-width:1;stroke-dasharray:none;stroke-opacity:1"
         d="m -64.358917,250.91575 c -1,-4 -2,-6 -4,-5 2,-1 2.668838,1.20109 2.999999,5 h 7.000001 c 1.999999,-6 4.999999,-12 7.999999,-17 -3.540544,5.11982 -6.556804,10.16775 -7.999999,15 v 2 h -1 c -0.231827,-4.70893 1,-9 1.999999,-13 -1.245866,3.48824 -2.539308,6.94195 -2.999999,11 v 2 h -1 c -0.582955,-6.1188 -0.860259,-10.70996 -2.000001,-14 0.483559,3.74148 1.405669,6.72829 1,12 l 1e-6,2 h -1 c 0,-3 -0.913539,-6.81742 -2.000001,-9 0.477356,2.54451 1.000001,5 1,7"
         id="path13775"
         sodipodi:nodetypes="cccccccccccccccccc" /></g><g
       id="g13825"
       transform="matrix(-1,0,0,1,-14.717838,7.0000012)"><path
         style="fill:#196b1c;fill-opacity:1;stroke:none;stroke-width:1;stroke-dasharray:none;stroke-opacity:1"
         d="m -17.358919,253.91575 c 1,-6 3.303426,-11.24734 6,-17 -3.540544,5.11982 -6.556805,10.16775 -8,15 -0.231827,-4.70893 0.659139,-7.34722 1,-11 -1.245866,3.48824 -2.539309,6.94195 -3,11 -0.582955,-6.1188 -1.860258,-8.70996 -3,-12 0.483559,3.74148 1.405669,6.72829 1,12 -0.679739,-2.89172 -1.913538,-4.81742 -3,-7 0.477356,2.54451 1.000001,5 1,7 -0.999999,-3 -1.999999,-4 -3.999999,-3 2,-1 2.668838,1.20109 2.999999,5 z"
         id="path13821"
         sodipodi:nodetypes="cccccccccccc" /><path
         style="fill:#2fca34;fill-opacity:1;stroke:none;stroke-width:1;stroke-dasharray:none;stroke-opacity:1"
         d="m -25.358918,253.91575 c -1,-4 -2,-6 -4,-5 2,-1 2.668838,1.20109 2.999999,5 h 7.000001 c 1.999999,-6 4.999999,-12 7.999999,-17 -3.540544,5.11982 -6.556804,10.16775 -7.999999,15 v 2 h -1 c -0.231827,-4.70893 1,-9 1.999999,-13 -1.245866,3.48824 -2.539308,6.94195 -2.999999,11 v 2 h -1 c -0.582955,-6.1188 -0.860259,-10.70996 -2.000001,-14 0.483559,3.74148 1.405669,6.72829 1,12 l 1e-6,2 h -1 c 0,-3 -0.913539,-6.81742 -2.000001,-9 0.477356,2.54451 1.000001,5 1,7"
         id="path13823"
         sodipodi:nodetypes="cccccccccccccccccc" /></g><g
       id="g13765"
       transform="matrix(-1,0,0,1,-40.717837,0)"><path
         style="fill:#196b1c;fill-opacity:1;stroke:none;stroke-width:1;stroke-dasharray:none;stroke-opacity:1"
         d="m -17.358919,253.91575 c 1,-6 3.303426,-11.24734 6,-17 -3.540544,5.11982 -6.556805,10.16775 -8,15 -0.231827,-4.70893 0.659139,-7.34722 1,-11 -1.245866,3.48824 -2.539309,6.94195 -3,11 -0.582955,-6.1188 -1.860258,-8.70996 -3,-12 0.483559,3.74148 1.405669,6.72829 1,12 -0.679739,-2.89172 -1.913538,-4.81742 -3,-7 0.477356,2.54451 1.000001,5 1,7 -0.999999,-3 -1.999999,-4 -3.999999,-3 2,-1 2.668838,1.20109 2.999999,5 z"
         id="path13479"
         sodipodi:nodetypes="cccccccccccc" /><path
         style="fill:#2fca34;fill-opacity:1;stroke:none;stroke-width:1;stroke-dasharray:none;stroke-opacity:1"
         d="m -25.358918,253.91575 c -1,-4 -2,-6 -4,-5 2,-1 2.668838,1.20109 2.999999,5 h 7.000001 c 1.999999,-6 4.999999,-12 7.999999,-17 -3.540544,5.11982 -6.556804,10.16775 -7.999999,15 v 2 h -1 c -0.231827,-4.70893 1,-9 1.999999,-13 -1.245866,3.48824 -2.539308,6.94195 -2.999999,11 v 2 h -1 c -0.582955,-6.1188 -0.860259,-10.70996 -2.000001,-14 0.483559,3.74148 1.405669,6.72829 1,12 l 1e-6,2 h -1 c 0,-3 -0.913539,-6.81742 -2.000001,-9 0.477356,2.54451 1.000001,5 1,7"
         id="path13481"
         sodipodi:nodetypes="cccccccccccccccccc" /></g><g
       id="g13477"><path
         style="fill:#2fca34;fill-opacity:1;stroke:none;stroke-width:1;stroke-dasharray:none;stroke-opacity:1"
         d="m -56.358918,250.91575 c 1,-6 3.303426,-11.24734 6,-17 -3.540544,5.11982 -6.556805,10.16775 -8,15 -0.231827,-4.70893 0.659139,-7.34722 1,-11 -1.245866,3.48824 -2.539309,6.94195 -3,11 -0.582955,-6.1188 -1.860258,-8.70996 -3,-12 0.483559,3.74148 1.405669,6.72829 1,12 -0.679739,-2.89172 -1.913538,-4.81742 -3,-7 0.477356,2.54451 1.000001,5 1,7 -0.999999,-3 -1.999999,-4 -3.999999,-3 2,-1 2.668838,1.20109 2.999999,5 z"
         id="path12701"
         sodipodi:nodetypes="cccccccccccc" /><path
         style="fill:#196b1c;fill-opacity:1;stroke:none;stroke-width:1;stroke-dasharray:none;stroke-opacity:1"
         d="m -64.358917,250.91575 c -1,-4 -2,-6 -4,-5 2,-1 2.668838,1.20109 2.999999,5 h 7.000001 c 1.999999,-6 4.999999,-12 7.999999,-17 -3.540544,5.11982 -6.556804,10.16775 -7.999999,15 v 2 h -1 c -0.231827,-4.70893 1,-9 1.999999,-13 -1.245866,3.48824 -2.539308,6.94195 -2.999999,11 v 2 h -1 c -0.582955,-6.1188 -0.860259,-10.70996 -2.000001,-14 0.483559,3.74148 1.405669,6.72829 1,12 l 1e-6,2 h -1 c 0,-3 -0.913539,-6.81742 -2.000001,-9 0.477356,2.54451 1.000001,5 1,7"
         id="path13473"
         sodipodi:nodetypes="cccccccccccccccccc" /></g><g
       id="g13801"
       transform="matrix(-1,0,0,1,2.2821618,-2.9999986)"><path
         style="fill:#196b1c;fill-opacity:1;stroke:none;stroke-width:1;stroke-dasharray:none;stroke-opacity:1"
         d="m -17.358919,253.91575 c 1,-6 3.303426,-11.24734 6,-17 -3.540544,5.11982 -6.556805,10.16775 -8,15 -0.231827,-4.70893 0.659139,-7.34722 1,-11 -1.245866,3.48824 -2.539309,6.94195 -3,11 -0.582955,-6.1188 -1.860258,-8.70996 -3,-12 0.483559,3.74148 1.405669,6.72829 1,12 -0.679739,-2.89172 -1.913538,-4.81742 -3,-7 0.477356,2.54451 1.000001,5 1,7 -0.999999,-3 -1.999999,-4 -3.999999,-3 2,-1 2.668838,1.20109 2.999999,5 z"
         id="path13797"
         sodipodi:nodetypes="cccccccccccc" /><path
         style="fill:#2fca34;fill-opacity:1;stroke:none;stroke-width:1;stroke-dasharray:none;stroke-opacity:1"
         d="m -25.358918,253.91575 c -1,-4 -2,-6 -4,-5 2,-1 2.668838,1.20109 2.999999,5 h 7.000001 c 1.999999,-6 4.999999,-12 7.999999,-17 -3.540544,5.11982 -6.556804,10.16775 -7.999999,15 v 2 h -1 c -0.231827,-4.70893 1,-9 1.999999,-13 -1.245866,3.48824 -2.539308,6.94195 -2.999999,11 v 2 h -1 c -0.582955,-6.1188 -0.860259,-10.70996 -2.000001,-14 0.483559,3.74148 1.405669,6.72829 1,12 l 1e-6,2 h -1 c 0,-3 -0.913539,-6.81742 -2.000001,-9 0.477356,2.54451 1.000001,5 1,7"
         id="path13799"
         sodipodi:nodetypes="cccccccccccccccccc" /></g><path
       style="fill:#ffffff;fill-opacity:0.275986;stroke:none;stroke-width:1;stroke-dasharray:none;stroke-opacity:1"
       d="m 197.64108,132.91575 v 5"
       id="path21802" /><path
       style="fill:none;fill-opacity:1;stroke-width:1;stroke:#6c4515;stroke-opacity:1"
       d="m -87.358917,215.91575 409.999977,-5"
       id="path23496" /><path
       style="fill:none;fill-opacity:1;stroke:#8b8b8b;stroke-width:1;stroke-opacity:1"
       d="m 322.64107,209.91575 -409.999987,5"
       id="path23939"
       sodipodi:nodetypes="cc" /><g
       id="g26550"
       inkscape:tile-cx="37.499999"
       inkscape:tile-cy="182.99999"
       inkscape:tile-w="85.520689"
       inkscape:tile-h="22"
       inkscape:tile-x0="-5.4999999"
       inkscape:tile-y0="171.99999"><path
         style="fill:none;fill-opacity:1;stroke:#535353;stroke-width:0.33;stroke-dasharray:none;stroke-opacity:1"
         d="m -87.358917,198.91575 84.9999984,-1"
         id="path24004"
         sodipodi:nodetypes="cc" /><path
         style="fill:none;fill-opacity:1;stroke:#535353;stroke-width:0.33;stroke-dasharray:none;stroke-opacity:1"
         d="m -87.358917,194.91575 c 27.676255,3.00194 56.010398,2.6645 84.9999984,-1"
         id="path24006"
         sodipodi:nodetypes="cc" /><path
         style="fill:none;fill-opacity:1;stroke:#535353;stroke-width:0.33;stroke-dasharray:none;stroke-opacity:1"
         d="m -82.358917,198.91575 0.03314,-3.46397"
         id="path24008"
         sodipodi:nodetypes="cc" /><path
         style="fill:none;fill-opacity:1;stroke:#535353;stroke-width:0.33;stroke-dasharray:none;stroke-opacity:1"
         d="m -77.358917,198.91575 v -3 m 5,3 -0.01657,-2.66859"
         id="path24010"
         sodipodi:nodetypes="cccc" /><path
         style="fill:none;fill-opacity:1;stroke:#535353;stroke-width:0.33;stroke-dasharray:none;stroke-opacity:1"
         d="m -67.358918,198.70033 v -2.19884"
         id="path24012"
         sodipodi:nodetypes="cc" /><path
         style="fill:none;fill-opacity:1;stroke:#535353;stroke-width:0.33;stroke-dasharray:none;stroke-opacity:1"
         d="m -62.358918,198.61748 v -1.88401"
         id="path24014"
         sodipodi:nodetypes="cc" /><path
         style="fill:none;fill-opacity:1;stroke:#535353;stroke-width:0.33;stroke-dasharray:none;stroke-opacity:1"
         d="m -57.358918,198.61748 v -1.70173"
         id="path24016"
         sodipodi:nodetypes="cc" /><path
         style="fill:none;fill-opacity:1;stroke:#535353;stroke-width:0.33;stroke-dasharray:none;stroke-opacity:1"
         d="m -52.342348,198.53463 -0.01657,-1.61888"
         id="path24018"
         sodipodi:nodetypes="cc" /><path
         style="fill:none;fill-opacity:1;stroke:#535353;stroke-width:0.33;stroke-dasharray:none;stroke-opacity:1"
         d="m -47.358919,198.50149 v -1.58574"
         id="path24020"
         sodipodi:nodetypes="cc" /><path
         style="fill:none;fill-opacity:1;stroke:#535353;stroke-width:0.33;stroke-dasharray:none;stroke-opacity:1"
         d="m -42.358918,198.39629 v -1.48054"
         id="path24022"
         sodipodi:nodetypes="cc" /><path
         style="fill:none;fill-opacity:1;stroke:#535353;stroke-width:0.33;stroke-dasharray:none;stroke-opacity:1"
         d="M -37.358918,198.34658 V 196.7169"
         id="path24024"
         sodipodi:nodetypes="cc" /><path
         style="fill:none;fill-opacity:1;stroke:#535353;stroke-width:0.33;stroke-dasharray:none;stroke-opacity:1"
         d="m -7.3589198,197.91575 v -3.33141"
         id="path24026"
         sodipodi:nodetypes="cc" /><path
         style="fill:none;fill-opacity:1;stroke:#535353;stroke-width:0.33;stroke-dasharray:none;stroke-opacity:1"
         d="m -12.35892,197.91575 v -3"
         id="path24028" /><path
         style="fill:none;fill-opacity:1;stroke:#535353;stroke-width:0.33;stroke-dasharray:none;stroke-opacity:1"
         d="m -17.358918,198.1146 v -2.5634"
         id="path24030"
         sodipodi:nodetypes="cc" /><path
         style="fill:none;fill-opacity:1;stroke:#535353;stroke-width:0.33;stroke-dasharray:none;stroke-opacity:1"
         d="m -22.358919,198.18088 v -2.26513"
         id="path24032"
         sodipodi:nodetypes="cc" /><path
         style="fill:none;fill-opacity:1;stroke:#535353;stroke-width:0.33;stroke-dasharray:none;stroke-opacity:1"
         d="m -27.358919,198.24716 v -2"
         id="path24034"
         sodipodi:nodetypes="cc" /><path
         style="fill:none;fill-opacity:1;stroke:#535353;stroke-width:0.33;stroke-dasharray:none;stroke-opacity:1"
         d="m -32.35892,198.2803 v -1.74567"
         id="path24036"
         sodipodi:nodetypes="cc" /><path
         style="fill:none;fill-opacity:1;stroke:#aca697;stroke-width:1;stroke-dasharray:none;stroke-opacity:1"
         d="m -87.358917,192.91575 v 22"
         id="path24901" /></g><use
       x="0"
       y="0"
       inkscape:tiled-clone-of="#g26550"
       xlink:href="#g26550"
       id="use26963" /><use
       x="0"
       y="0"
       inkscape:tiled-clone-of="#g26550"
       xlink:href="#g26550"
       transform="translate(85.520689,-0.88)"
       id="use26965" /><use
       x="0"
       y="0"
       inkscape:tiled-clone-of="#g26550"
       xlink:href="#g26550"
       transform="translate(171.04138,-1.76)"
       id="use26967" /><use
       x="0"
       y="0"
       inkscape:tiled-clone-of="#g26550"
       xlink:href="#g26550"
       transform="translate(256.56207,-2.64)"
       id="use26969" /><g
       id="g32373"
       transform="rotate(-0.17642105,248.09997,202.83325)"><path
         style="fill:#fffffe;fill-opacity:1;stroke:none;stroke-width:1.2;stroke-dasharray:none;stroke-opacity:1"
         d="m 307.64107,208.91575 -116.99999,1 c -5,0 -5,-2 -2,-4 1.661,-1.10734 3.15666,-2.10444 6,-4 2.75647,-1.62968 5.93949,-2 8,-2 h 105 z"
         id="path28783"
         sodipodi:nodetypes="ccccccc" /><path
         style="fill:none;fill-opacity:1;stroke:#4e4641;stroke-width:0.33;stroke-dasharray:none;stroke-opacity:1"
         d="m 239.64106,199.91575 3.00002,-2 -3.00002,-2 h -0.99999 2.00001"
         id="path29226"
         sodipodi:nodetypes="ccccc" /><path
         style="fill:none;fill-opacity:0.383513;stroke:#ff0000;stroke-width:1;stroke-dasharray:none;stroke-opacity:1"
         d="m 186.64108,207.91575 6.00001,-1 c 3.34808,-0.48321 4.7712,-0.46809 8.95311,-0.48445 l 106,0.0469"
         id="path30596"
         sodipodi:nodetypes="cccc" /><path
         style="fill:#3d3d3d;fill-opacity:1;stroke:none;stroke-width:1;stroke-dasharray:none;stroke-opacity:1"
         d="m 193.40756,204.45076 1.1268,1.22622 c 1.85073,-0.34661 3.48212,-0.40077 5.07058,-0.39769 l 109.96192,0.23199 0.0742,-2.59553 -109.04191,-0.0558 c -2.65851,0.008 -4.9715,0.70633 -7.19161,1.59077 z"
         id="path32047"
         sodipodi:nodetypes="ccccccc" /></g><use
       x="0"
       y="0"
       inkscape:tiled-clone-of="#g26550"
       xlink:href="#g26550"
       transform="translate(342.08276,-3.52)"
       id="use26971" /><g
       id="g28550"><path
         style="fill:none;fill-opacity:1;stroke:#7d3412;stroke-width:1.2;stroke-dasharray:none;stroke-opacity:1"
         d="m -7.3589198,184.91575 v -6"
         id="path27336" /><ellipse
         style="fill:#187d12;fill-opacity:1;stroke:none;stroke-width:1.2;stroke-dasharray:none;stroke-opacity:1"
         id="path28335"
         cx="-7.3589172"
         cy="174.91576"
         rx="4.000001"
         ry="5.0000033" /><ellipse
         style="fill:#18d812;fill-opacity:1;stroke:none;stroke-width:1.2;stroke-dasharray:none;stroke-opacity:1"
         id="ellipse28545"
         cx="-6.3589187"
         cy="174.91576"
         rx="2.9999998"
         ry="4.0000033" /></g><g
       id="g28558"
       transform="translate(-13,-1.0000033)"><path
         style="fill:none;fill-opacity:1;stroke:#7d3412;stroke-width:1.2;stroke-dasharray:none;stroke-opacity:1"
         d="m -7.3589198,184.91575 v -6"
         id="path28552" /><ellipse
         style="fill:#187d12;fill-opacity:1;stroke:none;stroke-width:1.2;stroke-dasharray:none;stroke-opacity:1"
         id="ellipse28554"
         cx="-7.3589172"
         cy="174.91576"
         rx="4.000001"
         ry="5.0000033" /><ellipse
         style="fill:#18d812;fill-opacity:1;stroke:none;stroke-width:1.2;stroke-dasharray:none;stroke-opacity:1"
         id="ellipse28556"
         cx="-6.3589187"
         cy="174.91576"
         rx="2.9999998"
         ry="4.0000033" /></g><g
       id="g28566"
       transform="translate(-6.9999997,1.9999932)"><path
         style="fill:none;fill-opacity:1;stroke:#7d3412;stroke-width:1.2;stroke-dasharray:none;stroke-opacity:1"
         d="m -7.3589198,184.91575 v -6"
         id="path28560" /><ellipse
         style="fill:#187d12;fill-opacity:1;stroke:none;stroke-width:1.2;stroke-dasharray:none;stroke-opacity:1"
         id="ellipse28562"
         cx="-7.3589172"
         cy="174.91576"
         rx="4.000001"
         ry="5.0000033" /><ellipse
         style="fill:#18d812;fill-opacity:1;stroke:none;stroke-width:1.2;stroke-dasharray:none;stroke-opacity:1"
         id="ellipse28564"
         cx="-6.3589187"
         cy="174.91576"
         rx="2.9999998"
         ry="4.0000033" /></g><g
       id="g28574"
       transform="translate(6.0000002,-3.0000032)"><path
         style="fill:none;fill-opacity:1;stroke:#7d3412;stroke-width:1.2;stroke-dasharray:none;stroke-opacity:1"
         d="m -7.3589198,184.91575 v -6"
         id="path28568" /><ellipse
         style="fill:#187d12;fill-opacity:1;stroke:none;stroke-width:1.2;stroke-dasharray:none;stroke-opacity:1"
         id="ellipse28570"
         cx="-7.3589172"
         cy="174.91576"
         rx="4.000001"
         ry="5.0000033" /><ellipse
         style="fill:#18d812;fill-opacity:1;stroke:none;stroke-width:1.2;stroke-dasharray:none;stroke-opacity:1"
         id="ellipse28572"
         cx="-6.3589187"
         cy="174.91576"
         rx="2.9999998"
         ry="4.0000033" /></g><g
       id="g28598"
       transform="translate(13,-3.0000032)"><path
         style="fill:none;fill-opacity:1;stroke:#7d3412;stroke-width:1.2;stroke-dasharray:none;stroke-opacity:1"
         d="m -7.3589198,184.91575 v -6"
         id="path28592" /><ellipse
         style="fill:#187d12;fill-opacity:1;stroke:none;stroke-width:1.2;stroke-dasharray:none;stroke-opacity:1"
         id="ellipse28594"
         cx="-7.3589172"
         cy="174.91576"
         rx="4.000001"
         ry="5.0000033" /><ellipse
         style="fill:#18d812;fill-opacity:1;stroke:none;stroke-width:1.2;stroke-dasharray:none;stroke-opacity:1"
         id="ellipse28596"
         cx="-6.3589187"
         cy="174.91576"
         rx="2.9999998"
         ry="4.0000033" /></g><g
       id="g28582"
       transform="translate(11,3.9999932)"><path
         style="fill:none;fill-opacity:1;stroke:#7d3412;stroke-width:1.2;stroke-dasharray:none;stroke-opacity:1"
         d="m -7.3589198,184.91575 v -6"
         id="path28576" /><ellipse
         style="fill:#187d12;fill-opacity:1;stroke:none;stroke-width:1.2;stroke-dasharray:none;stroke-opacity:1"
         id="ellipse28578"
         cx="-7.3589172"
         cy="174.91576"
         rx="4.000001"
         ry="5.0000033" /><ellipse
         style="fill:#18d812;fill-opacity:1;stroke:none;stroke-width:1.2;stroke-dasharray:none;stroke-opacity:1"
         id="ellipse28580"
         cx="-6.3589187"
         cy="174.91576"
         rx="2.9999998"
         ry="4.0000033" /></g><g
       id="g28590"
       transform="translate(3.9999999,3.9999966)"><path
         style="fill:none;fill-opacity:1;stroke:#7d3412;stroke-width:1.2;stroke-dasharray:none;stroke-opacity:1"
         d="m -7.3589198,184.91575 v -6"
         id="path28584" /><ellipse
         style="fill:#187d12;fill-opacity:1;stroke:none;stroke-width:1.2;stroke-dasharray:none;stroke-opacity:1"
         id="ellipse28586"
         cx="-7.3589172"
         cy="174.91576"
         rx="4.000001"
         ry="5.0000033" /><ellipse
         style="fill:#18d812;fill-opacity:1;stroke:none;stroke-width:1.2;stroke-dasharray:none;stroke-opacity:1"
         id="ellipse28588"
         cx="-6.3589187"
         cy="174.91576"
         rx="2.9999998"
         ry="4.0000033" /></g><g
       id="g28606"
       transform="translate(21,-1.0000033)"><path
         style="fill:none;fill-opacity:1;stroke:#7d3412;stroke-width:1.2;stroke-dasharray:none;stroke-opacity:1"
         d="m -7.3589198,184.91575 v -6"
         id="path28600" /><ellipse
         style="fill:#187d12;fill-opacity:1;stroke:none;stroke-width:1.2;stroke-dasharray:none;stroke-opacity:1"
         id="ellipse28602"
         cx="-7.3589172"
         cy="174.91576"
         rx="4.000001"
         ry="5.0000033" /><ellipse
         style="fill:#18d812;fill-opacity:1;stroke:none;stroke-width:1.2;stroke-dasharray:none;stroke-opacity:1"
         id="ellipse28604"
         cx="-6.3589187"
         cy="174.91576"
         rx="2.9999998"
         ry="4.0000033" /></g><g
       id="g28614"
       transform="translate(17,3.9999966)"><path
         style="fill:none;fill-opacity:1;stroke:#7d3412;stroke-width:1.2;stroke-dasharray:none;stroke-opacity:1"
         d="m -7.3589198,184.91575 v -6"
         id="path28608" /><ellipse
         style="fill:#187d12;fill-opacity:1;stroke:none;stroke-width:1.2;stroke-dasharray:none;stroke-opacity:1"
         id="ellipse28610"
         cx="-7.3589172"
         cy="174.91576"
         rx="4.000001"
         ry="5.0000033" /><ellipse
         style="fill:#18d812;fill-opacity:1;stroke:none;stroke-width:1.2;stroke-dasharray:none;stroke-opacity:1"
         id="ellipse28612"
         cx="-6.3589187"
         cy="174.91576"
         rx="2.9999998"
         ry="4.0000033" /></g><g
       id="g28622"
       transform="translate(168,-7.0000032)"><path
         style="fill:none;fill-opacity:1;stroke:#7d3412;stroke-width:1.2;stroke-dasharray:none;stroke-opacity:1"
         d="m -7.3589198,184.91575 v -6"
         id="path28616" /><ellipse
         style="fill:#187d12;fill-opacity:1;stroke:none;stroke-width:1.2;stroke-dasharray:none;stroke-opacity:1"
         id="ellipse28618"
         cx="-7.3589172"
         cy="174.91576"
         rx="4.000001"
         ry="5.0000033" /><ellipse
         style="fill:#18d812;fill-opacity:1;stroke:none;stroke-width:1.2;stroke-dasharray:none;stroke-opacity:1"
         id="ellipse28620"
         cx="-6.3589187"
         cy="174.91576"
         rx="2.9999998"
         ry="4.0000033" /></g><g
       id="g28630"
       transform="translate(33,2.9999966)"><path
         style="fill:none;fill-opacity:1;stroke:#7d3412;stroke-width:1.2;stroke-dasharray:none;stroke-opacity:1"
         d="m -7.3589198,184.91575 v -6"
         id="path28624" /><ellipse
         style="fill:#187d12;fill-opacity:1;stroke:none;stroke-width:1.2;stroke-dasharray:none;stroke-opacity:1"
         id="ellipse28626"
         cx="-7.3589172"
         cy="174.91576"
         rx="4.000001"
         ry="5.0000033" /><ellipse
         style="fill:#18d812;fill-opacity:1;stroke:none;stroke-width:1.2;stroke-dasharray:none;stroke-opacity:1"
         id="ellipse28628"
         cx="-6.3589187"
         cy="174.91576"
         rx="2.9999998"
         ry="4.0000033" /></g><g
       id="g28638"
       transform="translate(175,-9.999997)"><path
         style="fill:none;fill-opacity:1;stroke:#7d3412;stroke-width:1.2;stroke-dasharray:none;stroke-opacity:1"
         d="m -7.3589198,184.91575 v -6"
         id="path28632" /><ellipse
         style="fill:#187d12;fill-opacity:1;stroke:none;stroke-width:1.2;stroke-dasharray:none;stroke-opacity:1"
         id="ellipse28634"
         cx="-7.3589172"
         cy="174.91576"
         rx="4.000001"
         ry="5.0000033" /><ellipse
         style="fill:#18d812;fill-opacity:1;stroke:none;stroke-width:1.2;stroke-dasharray:none;stroke-opacity:1"
         id="ellipse28636"
         cx="-6.3589187"
         cy="174.91576"
         rx="2.9999998"
         ry="4.0000033" /></g><g
       id="g28646"
       transform="translate(182,-13.000006)"><path
         style="fill:none;fill-opacity:1;stroke:#7d3412;stroke-width:1.2;stroke-dasharray:none;stroke-opacity:1"
         d="m -7.3589198,184.91575 v -6"
         id="path28640" /><ellipse
         style="fill:#187d12;fill-opacity:1;stroke:none;stroke-width:1.2;stroke-dasharray:none;stroke-opacity:1"
         id="ellipse28642"
         cx="-7.3589172"
         cy="174.91576"
         rx="4.000001"
         ry="5.0000033" /><ellipse
         style="fill:#18d812;fill-opacity:1;stroke:none;stroke-width:1.2;stroke-dasharray:none;stroke-opacity:1"
         id="ellipse28644"
         cx="-6.3589187"
         cy="174.91576"
         rx="2.9999998"
         ry="4.0000033" /></g><g
       id="g28654"
       transform="translate(189,-11.000007)"><path
         style="fill:none;fill-opacity:1;stroke:#7d3412;stroke-width:1.2;stroke-dasharray:none;stroke-opacity:1"
         d="m -7.3589198,184.91575 v -6"
         id="path28648" /><ellipse
         style="fill:#187d12;fill-opacity:1;stroke:none;stroke-width:1.2;stroke-dasharray:none;stroke-opacity:1"
         id="ellipse28650"
         cx="-7.3589172"
         cy="174.91576"
         rx="4.000001"
         ry="5.0000033" /><ellipse
         style="fill:#18d812;fill-opacity:1;stroke:none;stroke-width:1.2;stroke-dasharray:none;stroke-opacity:1"
         id="ellipse28652"
         cx="-6.3589187"
         cy="174.91576"
         rx="2.9999998"
         ry="4.0000033" /></g><g
       id="g28662"
       transform="translate(196,-11.000007)"><path
         style="fill:none;fill-opacity:1;stroke:#7d3412;stroke-width:1.2;stroke-dasharray:none;stroke-opacity:1"
         d="m -7.3589198,184.91575 v -6"
         id="path28656" /><ellipse
         style="fill:#187d12;fill-opacity:1;stroke:none;stroke-width:1.2;stroke-dasharray:none;stroke-opacity:1"
         id="ellipse28658"
         cx="-7.3589172"
         cy="174.91576"
         rx="4.000001"
         ry="5.0000033" /><ellipse
         style="fill:#18d812;fill-opacity:1;stroke:none;stroke-width:1.2;stroke-dasharray:none;stroke-opacity:1"
         id="ellipse28660"
         cx="-6.3589187"
         cy="174.91576"
         rx="2.9999998"
         ry="4.0000033" /></g><g
       id="g28670"
       transform="translate(203,-8.0000066)"><path
         style="fill:none;fill-opacity:1;stroke:#7d3412;stroke-width:1.2;stroke-dasharray:none;stroke-opacity:1"
         d="m -7.3589198,184.91575 v -6"
         id="path28664" /><ellipse
         style="fill:#187d12;fill-opacity:1;stroke:none;stroke-width:1.2;stroke-dasharray:none;stroke-opacity:1"
         id="ellipse28666"
         cx="-7.3589172"
         cy="174.91576"
         rx="4.000001"
         ry="5.0000033" /><ellipse
         style="fill:#18d812;fill-opacity:1;stroke:none;stroke-width:1.2;stroke-dasharray:none;stroke-opacity:1"
         id="ellipse28668"
         cx="-6.3589187"
         cy="174.91576"
         rx="2.9999998"
         ry="4.0000033" /></g><g
       id="g28678"
       transform="translate(172,-2.9999971)"><path
         style="fill:none;fill-opacity:1;stroke:#7d3412;stroke-width:1.2;stroke-dasharray:none;stroke-opacity:1"
         d="m -7.3589198,184.91575 v -6"
         id="path28672" /><ellipse
         style="fill:#187d12;fill-opacity:1;stroke:none;stroke-width:1.2;stroke-dasharray:none;stroke-opacity:1"
         id="ellipse28674"
         cx="-7.3589172"
         cy="174.91576"
         rx="4.000001"
         ry="5.0000033" /><ellipse
         style="fill:#18d812;fill-opacity:1;stroke:none;stroke-width:1.2;stroke-dasharray:none;stroke-opacity:1"
         id="ellipse28676"
         cx="-6.3589187"
         cy="174.91576"
         rx="2.9999998"
         ry="4.0000033" /></g><g
       id="g28686"
       transform="translate(179,-5.0000066)"><path
         style="fill:none;fill-opacity:1;stroke:#7d3412;stroke-width:1.2;stroke-dasharray:none;stroke-opacity:1"
         d="m -7.3589198,184.91575 v -6"
         id="path28680" /><ellipse
         style="fill:#187d12;fill-opacity:1;stroke:none;stroke-width:1.2;stroke-dasharray:none;stroke-opacity:1"
         id="ellipse28682"
         cx="-7.3589172"
         cy="174.91576"
         rx="4.000001"
         ry="5.0000033" /><ellipse
         style="fill:#18d812;fill-opacity:1;stroke:none;stroke-width:1.2;stroke-dasharray:none;stroke-opacity:1"
         id="ellipse28684"
         cx="-6.3589187"
         cy="174.91576"
         rx="2.9999998"
         ry="4.0000033" /></g><g
       id="g28694"
       transform="translate(185,-5.0000066)"><path
         style="fill:none;fill-opacity:1;stroke:#7d3412;stroke-width:1.2;stroke-dasharray:none;stroke-opacity:1"
         d="m -7.3589198,184.91575 v -6"
         id="path28688" /><ellipse
         style="fill:#187d12;fill-opacity:1;stroke:none;stroke-width:1.2;stroke-dasharray:none;stroke-opacity:1"
         id="ellipse28690"
         cx="-7.3589172"
         cy="174.91576"
         rx="4.000001"
         ry="5.0000033" /><ellipse
         style="fill:#18d812;fill-opacity:1;stroke:none;stroke-width:1.2;stroke-dasharray:none;stroke-opacity:1"
         id="ellipse28692"
         cx="-6.3589187"
         cy="174.91576"
         rx="2.9999998"
         ry="4.0000033" /></g><g
       id="g28702"
       transform="translate(192,-4.0000066)"><path
         style="fill:none;fill-opacity:1;stroke:#7d3412;stroke-width:1.2;stroke-dasharray:none;stroke-opacity:1"
         d="m -7.3589198,184.91575 v -6"
         id="path28696" /><ellipse
         style="fill:#187d12;fill-opacity:1;stroke:none;stroke-width:1.2;stroke-dasharray:none;stroke-opacity:1"
         id="ellipse28698"
         cx="-7.3589172"
         cy="174.91576"
         rx="4.000001"
         ry="5.0000033" /><ellipse
         style="fill:#18d812;fill-opacity:1;stroke:none;stroke-width:1.2;stroke-dasharray:none;stroke-opacity:1"
         id="ellipse28700"
         cx="-6.3589187"
         cy="174.91576"
         rx="2.9999998"
         ry="4.0000033" /></g><g
       id="g28710"
       transform="translate(179,1.0000028)"><path
         style="fill:none;fill-opacity:1;stroke:#7d3412;stroke-width:1.2;stroke-dasharray:none;stroke-opacity:1"
         d="m -7.3589198,184.91575 v -6"
         id="path28704" /><ellipse
         style="fill:#187d12;fill-opacity:1;stroke:none;stroke-width:1.2;stroke-dasharray:none;stroke-opacity:1"
         id="ellipse28706"
         cx="-7.3589172"
         cy="174.91576"
         rx="4.000001"
         ry="5.0000033" /><ellipse
         style="fill:#18d812;fill-opacity:1;stroke:none;stroke-width:1.2;stroke-dasharray:none;stroke-opacity:1"
         id="ellipse28708"
         cx="-6.3589187"
         cy="174.91576"
         rx="2.9999998"
         ry="4.0000033" /></g><g
       id="g28718"
       transform="translate(239,6.9999966)"><path
         style="fill:none;fill-opacity:1;stroke:#7d3412;stroke-width:1.2;stroke-dasharray:none;stroke-opacity:1"
         d="m -7.3589198,184.91575 v -6"
         id="path28712" /><ellipse
         style="fill:#187d12;fill-opacity:1;stroke:none;stroke-width:1.2;stroke-dasharray:none;stroke-opacity:1"
         id="ellipse28714"
         cx="-7.3589172"
         cy="174.91576"
         rx="4.000001"
         ry="5.0000033" /><ellipse
         style="fill:#18d812;fill-opacity:1;stroke:none;stroke-width:1.2;stroke-dasharray:none;stroke-opacity:1"
         id="ellipse28716"
         cx="-6.3589187"
         cy="174.91576"
         rx="2.9999998"
         ry="4.0000033" /></g><rect
       style="fill:#ffffff;fill-opacity:0.154676;stroke:none;stroke-width:1;stroke-dasharray:none;stroke-opacity:1"
       id="rect20665"
       width="435"
       height="265"
       x="-107.35892"
       y="8.4157495" /></g></svg>
